<svg xmlns="http://www.w3.org/2000/svg" version="1.1" viewBox="-5.0 -10.0 110.0 135.0">
 <path d="m49.598 97.246c-0.074218-0.14062-0.52734-0.66406-1.0078-1.1719-0.98828-1.0352-2.8867-3.5234-4.0938-5.3711-2.4531-3.75-4.9102-8.2227-5.4414-9.9102l-0.24609-0.77734 0.625-2.9102c0.34375-1.6016 0.67969-3.2891 0.74219-3.7539 0.066407-0.46484 0.16406-1.0195 0.22266-1.2344 0.27344-1.0508 1.25-6.1953 1.4492-7.6367 0.41797-3.0312 0.48438-4.9453 0.43359-12.855-0.050781-7.2578-0.0625-7.6719-0.40234-11.621-0.19531-2.2539-0.35156-4.4453-0.35156-4.8672v-0.76953l-0.42188 0.074218c-1.9258 0.34375-5.4805 1.3438-6.2969 1.7695-0.42188 0.21875-0.49219-0.03125-0.42188-1.4805 0.070312-1.4414 0.44141-4.1523 0.66016-4.8008 0.11328-0.34375 0.19141-0.41797 0.40234-0.39453 0.14453 0.015625 1.5312-0.097656 3.0859-0.25 1.5547-0.15234 3.7617-0.33594 4.9023-0.40625 1.1445-0.066406 2.1406-0.14453 2.2188-0.16406 0.10547-0.03125 0.14062-0.58203 0.14062-2.2617 0-1.2227 0.078125-5.043 0.17188-8.4883l0.17188-6.2656-0.44922-0.62891c-1.2891-1.8008-1.332-3.8398-0.12109-5.6875 1.1367-1.7383 2.9062-2.8828 4.4414-2.8828 1.5352 0 3.3008 1.1484 4.4375 2.8828 1.2109 1.8477 1.168 3.8867-0.12109 5.6875l-0.44922 0.62891 0.17188 6.2656c0.09375 3.4453 0.17188 7.2656 0.17188 8.4883 0 1.6797 0.035156 2.2305 0.14062 2.2617 0.078125 0.023437 1.0742 0.097656 2.2188 0.16406 1.1406 0.070313 3.3477 0.25391 4.9023 0.40625s2.9414 0.26562 3.0859 0.25c0.21094-0.023437 0.28516 0.050782 0.40234 0.39453 0.21484 0.63672 0.58594 3.3359 0.65625 4.7969 0.074219 1.4492 0.003906 1.7031-0.41797 1.4805-0.81641-0.42578-4.3711-1.4258-6.2969-1.7695l-0.42187-0.074219v0.76953c0 0.42188-0.16016 2.6133-0.35156 4.8672-0.33984 3.9531-0.35156 4.3672-0.40234 11.621-0.050781 7.9102 0.011719 9.8242 0.43359 12.855 0.19922 1.4414 1.1758 6.5859 1.4492 7.6367 0.054687 0.21875 0.15625 0.77344 0.22266 1.2344 0.066406 0.46484 0.39844 2.1562 0.74219 3.7617l0.62109 2.918-0.24219 0.76953c-0.75391 2.3867-4.5273 8.8438-7.4648 12.766-1.2227 1.6328-3.3281 3.9297-3.6055 3.9297-0.078125 0-0.20312-0.11328-0.27734-0.25391zm0.34766-3.0469v-2.2852l-1.1367-1.5586c-1.8086-2.4766-6.5586-9.7148-6.7461-10.27-0.042969-0.12891-2.3164 0.19922-2.4922 0.35547-0.14453 0.12891 1.7344 3.793 3.1562 6.1523 2.4375 4.0469 4.4414 6.9023 6.2109 8.8555 0.51562 0.57031 0.95703 1.0391 0.97656 1.0391 0.019532 0 0.035157-1.0273 0.035157-2.2852zm-0.88281-2.7109c-0.34766-0.39844-1.3633-1.9023-1.3633-2.0195 0-0.074219 1.3047 1.6172 1.6211 2.1016 0.27734 0.42578 0.15625 0.38672-0.25781-0.082031zm-1.4102-1.1914c-0.16016-0.19141-0.28906-0.39844-0.28906-0.46484 0-0.066406 0.15234 0.070313 0.33594 0.30469 0.18359 0.23438 0.33594 0.44141 0.33594 0.46484 0 0.10547-0.11719 0.011719-0.38281-0.30469zm5.2578 2.8711c1.4375-1.8945 2.6172-3.6758 4.3789-6.5977 1.4102-2.3398 3.4023-6.2344 3.2578-6.3633-0.097656-0.089843-2.4062-0.5-2.4531-0.4375-0.011719 0.019531-0.20312 0.37109-0.42578 0.77734-0.80078 1.4805-4.5117 7.0977-6.4727 9.7969-0.98047 1.3477-1.1211 1.5977-1.0508 1.8555 0.046875 0.16016 0.078125 1.1719 0.074219 2.2383l-0.007812 1.9453 0.71094-0.76953c0.39062-0.42188 1.2852-1.5234 1.9883-2.4492zm-2.168 1.8867c0.085937-0.12109 0.48047-0.57031 0.875-0.99609l0.71875-0.77734-0.71875 0.94531c-0.39453 0.51953-0.78906 0.96875-0.875 0.99609-0.13672 0.042969-0.13672 0.019532 0-0.17188zm-0.011719-0.57813c0-0.125 0.4375-0.51562 0.50391-0.44922 0.074219 0.074218-0.26953 0.54297-0.39844 0.54297-0.058594 0-0.10547-0.042968-0.10547-0.09375zm0.39453-4.6758c1.043-1.4297 5.1445-7.5859 6.0625-9.0977 0.375-0.61719 0.53906-1.0039 0.52344-1.2305-0.015626-0.18359-0.27344-1.2969-0.57813-2.4727-0.30469-1.1758-0.62891-2.668-0.72266-3.3164-0.17578-1.2109-0.55859-5.2812-0.67969-7.1875-0.074219-1.1719-0.23047-3.0117-0.40625-4.8164-0.36719-3.7578-0.32812-9.125 0.125-16.746 0.25781-4.3672 0.51562-10.863 0.42578-10.949-0.36328-0.36328-11.391-0.36328-11.754 0-0.085938 0.085937 0.16797 6.5742 0.42578 10.949 0.36328 6.0938 0.44531 9.3086 0.33594 12.746-0.058593 1.7305-0.12891 3.2695-0.16016 3.4258-0.0625 0.30859-0.20312 2.0195-0.45312 5.4453-0.42578 5.8281-0.65625 7.5391-1.4688 10.707l-0.61328 2.3984 0.58203 0.96875c0.91406 1.5234 5.0117 7.668 6.1641 9.2539 0.57422 0.78906 1.082 1.3945 1.125 1.3477 0.046875-0.046874 0.52344-0.69141 1.0625-1.4336zm-1.2109-5.2695c-0.046874-2.8984-0.085937-13.211-0.085937-22.918s0.039063-19.867 0.085937-22.582l0.085938-4.9297 0.070312 3.7031c0.089844 4.8359 0.089844 42.848 0 48.004l-0.070312 3.9883-0.085938-5.2695zm-6.7344-3.9102c-0.09375-0.14062-0.25781-0.43359-0.36719-0.64844l-0.19922-0.39453 0.23047 0.20703c0.24609 0.21875 0.64062 0.95703 0.55469 1.0391-0.027344 0.027343-0.125-0.0625-0.21875-0.20703zm13.387 0.058594c0-0.13672 0.59375-0.9375 0.64844-0.87891 0.03125 0.03125-0.078125 0.25781-0.24219 0.50781-0.28516 0.42969-0.40625 0.54297-0.40625 0.37109zm-15.074-0.92578c0.45703-0.007812 0.47656-0.019531 0.47656-0.35156 0-0.19141 0.25-1.3164 0.55469-2.5 0.73047-2.8359 1.0078-4.8516 1.4102-10.348 0.09375-1.2969 0.21875-2.7852 0.27734-3.3125 0.41797-3.8047 0.42187-10.93 0.011718-17.742-0.12109-2.0078-0.27344-4.9883-0.33984-6.625-0.066406-1.6367-0.14844-3.3984-0.18359-3.9141l-0.066407-0.94141-0.57812 0.074219c-1.1719 0.15234-1.1211 0.10938-1.0391 0.94922 0.039063 0.40625 0.25781 2.6602 0.48828 5.0078l0.41797 4.2695 0.003906 8.5898c0.003907 7.6016-0.023437 8.7852-0.19922 10.273-0.22656 1.8906-0.78906 5.0586-1.3633 7.6836-0.21094 0.96094-0.66797 3.1836-1.0195 4.9414-0.35156 1.7539-0.71094 3.3906-0.79688 3.6367-0.085937 0.24219-0.15625 0.48047-0.15625 0.52344s0.36719 0.015625 0.81641-0.066406c0.44922-0.078125 1.0273-0.14844 1.2891-0.15234zm18.965-0.30469c-0.085937-0.24219-0.44531-1.8828-0.79688-3.6367-0.35156-1.7578-0.80859-3.9805-1.0195-4.9414-0.57031-2.625-1.1367-5.7969-1.3633-7.6836-0.17969-1.4883-0.20312-2.6797-0.20312-10.219v-8.5352l0.42188-4.4023c0.46094-4.8398 0.50391-5.7031 0.26953-5.793-0.085937-0.03125-0.43359-0.09375-0.77734-0.13672l-0.625-0.078124-0.066406 0.9375c-0.035156 0.51562-0.12109 2.2773-0.18359 3.9141-0.066406 1.6367-0.21875 4.6172-0.33984 6.625-0.41016 6.8125-0.40625 13.938 0.011718 17.742 0.058594 0.52734 0.18359 2.0156 0.27734 3.3125 0.40234 5.5156 0.65625 7.3594 1.4297 10.461l0.59375 2.3711 0.82422 0.13672c0.45312 0.074218 1.0117 0.19922 1.2344 0.28125 0.22656 0.078124 0.42188 0.13281 0.4375 0.11719 0.015625-0.011719-0.039062-0.22656-0.12891-0.47266zm-24.289-44.387c2.0352-0.80859 5.7578-1.5977 9.0469-1.9141 1.7852-0.17578 8.2188-0.14063 10.012 0.050781 2.4023 0.25781 4.8125 0.70703 6.793 1.2656 1.0898 0.30469 2.6094 0.875 2.8359 1.0664 0.10938 0.089844 0.14062-0.015625 0.14062-0.48828 0-0.63281-0.41406-4.5039-0.51562-4.8438-0.050781-0.16797-0.21094-0.19531-1.1484-0.19922-0.59766 0-2.1719-0.10547-3.5-0.23047-3.1953-0.30078-5.6289-0.35938-6.8477-0.16016-1.8398 0.29688-3.2969 0.32422-5.0547 0.097656-2.082-0.26953-4.4258-0.25-7.7305 0.0625-1.3828 0.12891-2.9805 0.23438-3.5586 0.23438-0.89844 0-1.0547 0.027344-1.1055 0.19531-0.10156 0.33984-0.51562 4.2109-0.51562 4.8438 0 0.47266 0.03125 0.57812 0.14062 0.48828 0.078125-0.066406 0.53516-0.27344 1.0156-0.46484zm-0.89062-1.0273c0.039062-0.4375 0.14844-0.92969 0.23438-1.0938 0.15234-0.28516 0.16016-0.26953 0.10547 0.31641-0.11328 1.2422-0.17188 1.5703-0.29297 1.5703-0.085938 0-0.097657-0.25391-0.046875-0.79688zm0.51953 0.20703c0-0.23047 0.050781-0.42188 0.10938-0.42188 0.14453 0 0.14453 0.45313 0 0.67188-0.078125 0.125-0.10938 0.0625-0.10938-0.25391zm27.621-3.4531c0-0.0625 0.16406-0.10937 0.36328-0.10547 0.30859 0.007812 0.32812 0.023437 0.14062 0.10547-0.30859 0.13281-0.50781 0.13281-0.50781 0zm-1.4023-0.44922c0.28125-0.12109 1.5898-0.12109 1.9648 0 0.17969 0.058594-0.17188 0.089844-0.95312 0.09375-0.78516 0.003906-1.1523-0.03125-1.0117-0.09375zm-9.1445-1.5273c0.69531-0.66797 0.70703-0.77734 0.60938-6.0859-0.050781-2.6367-0.12109-5.8828-0.15625-7.2109l-0.070313-2.4141-0.67578 0.03125c-0.37109 0.015626-1.1055 0.13672-1.6367 0.26563l-0.96484 0.23437-0.89062-0.22656c-0.48828-0.125-1.2188-0.24609-1.6172-0.26562l-0.73047-0.035156-0.070312 2.3594c-0.039063 1.2969-0.10938 4.543-0.15625 7.2109-0.097657 5.3516-0.085938 5.4766 0.59375 6.1289 0.38281 0.36328 0.76562 0.40625 3.4336 0.35937l2.0039-0.035156 0.32422-0.3125zm-5.625-0.078125c-0.26562-0.12109-0.25391-0.13281 0.22656-0.17188 0.27734-0.023438 0.78125-0.003906 1.1211 0.042969 0.51172 0.066406 0.57031 0.097656 0.33594 0.16406-0.42969 0.12891-1.3711 0.10938-1.6836-0.035156zm-0.28516-0.58203c-0.21484-0.16016-0.21484-0.16406 0.019531-0.16797 0.42188-0.007813 0.94141 0.13281 0.875 0.23438-0.097657 0.15625-0.65625 0.11328-0.89453-0.066406zm5.793-13.102c-0.003906-1.0156 0.097656-1.6445 0.23047-1.4297 0.10938 0.17578 0 1.875-0.13672 2.1172-0.058594 0.10156-0.09375-0.16797-0.097656-0.6875zm-0.42188-1.1094c0-0.27734 0.023438-0.39062 0.046875-0.25391 0.027344 0.13672 0.027344 0.36719 0 0.50391-0.027344 0.14062-0.046875 0.023438-0.046875-0.25391zm-0.67578-1.5391c1.8828-0.88672 3.1172-2.8008 2.9727-4.6094-0.11328-1.4062-1.2266-3.0664-2.6719-3.9805-0.78516-0.5-1.2383-0.64844-1.957-0.64844-0.72266 0-1.1719 0.14844-1.9609 0.64844-1.4414 0.91406-2.5586 2.5781-2.6719 3.9805-0.16016 2.0234 1.2812 4 3.5586 4.8672 0.6875 0.26562 1.8516 0.15234 2.7305-0.26172zm-2.7812-0.41016c-0.30859-0.14453-0.23047-0.15625 0.97266-0.14063 0.85547 0.007813 1.2461 0.050782 1.1289 0.11719-0.32031 0.17969-1.7344 0.19531-2.1016 0.023438zm-2.3008-6.168c0-0.21484 0.59766-0.99219 1.0391-1.3555 0.42969-0.35156 1.1602-0.74609 1.3867-0.74609 0.042969 0-0.12109 0.13281-0.36328 0.28906-0.23828 0.16016-0.80469 0.65234-1.25 1.0938-0.44922 0.44141-0.8125 0.76562-0.8125 0.71875z"/>
</svg>