<svg xmlns="http://www.w3.org/2000/svg" version="1.1" viewBox="-5.0 -10.0 110.0 135.0">
 <path d="m48.312 97.336c-1.3477-0.48047-2.9961-2.0469-3.7305-3.5352-0.875-1.7812-0.70312-3.75 0.39844-4.5625 0.28516-0.21094 0.52734-0.38281 0.54688-0.39062 0.015625-0.007812-0.058594-1.5938-0.16797-3.5273-0.22656-4.0664-0.49609-10.645-0.53906-13.094l-0.027343-1.6914-1.0586-0.16016c-0.58203-0.089844-2.2617-0.23438-3.7305-0.32422-6.4219-0.39062-7-0.50391-7.0859-1.3711-0.09375-0.94922 0.97266-2.1758 2.4141-2.7734 0.29688-0.12109 1.5625-0.44922 2.8164-0.73047 1.2539-0.28125 2.3359-0.54688 2.4062-0.58984 0.078124-0.046876 0.09375-2.8828 0.039062-7.0625-0.082031-6.5352-0.20703-10.172-0.72656-21.562-0.37109-8.1328-0.73047-18.906-0.66016-19.855 0.035157-0.49609 0.21484-0.875 0.83203-1.7617 2.7695-3.9844 9.3281-11.816 9.9219-11.852 0.59766-0.035157 7.9219 8.7422 10.32 12.375l0.53516 0.80859-0.09375 3.1367c-0.22266 7.4141-0.39062 11.91-0.71875 19.262-0.52734 11.859-0.63281 15.359-0.63281 21.199v5.3555l2.4102 0.53125c1.3438 0.29688 2.7227 0.6875 3.1133 0.88672 0.9375 0.47656 1.8906 1.375 2.0898 1.9766 0.42188 1.2734-0.37109 1.6914-3.457 1.8164-2.2422 0.089844-6.7578 0.4375-7.8164 0.60156l-0.63281 0.097656-0.089844 4.8594c-0.046875 2.6719-0.19531 6.7773-0.32812 9.125l-0.24219 4.2656 0.63281 0.55469c0.76172 0.67188 1.0195 1.4922 0.86328 2.7461-0.23047 1.8516-1.9453 4.1406-3.7383 4.9883-0.80469 0.37891-1.0352 0.42578-2.168 0.41406-0.69531-0.007813-1.457-0.078126-1.6914-0.16016zm3.6289-1.0898c0.91016-0.46484 2.2773-1.918 2.7461-2.9219 0.49609-1.0742 0.54297-2.625 0.097656-3.2266-0.50781-0.67969-0.63672-0.69531-1.6523-0.21484-0.51172 0.24609-1.4492 0.55078-2.0781 0.67578-1.0586 0.21094-1.2266 0.21094-2.207 0-0.58594-0.12891-1.5039-0.43359-2.0391-0.67969l-0.97656-0.44922-0.44922 0.44922c-0.43359 0.43359-0.44922 0.49219-0.44922 1.6094 0 0.98438 0.058594 1.2812 0.39453 1.957 0.50781 1.0352 1.7969 2.3555 2.7773 2.8438 0.69531 0.34766 0.89453 0.38281 1.9727 0.34375 0.92578-0.035156 1.3477-0.12109 1.8672-0.38672zm-3.418-0.22656c-0.83594-0.38672-1.5469-0.98438-1.5469-1.2891 0-0.12891 0.14844-0.078125 0.45703 0.15625 0.77734 0.59375 1.957 1.0703 2.6406 1.0703 0.68359 0 1.8633-0.47656 2.6406-1.0703 0.57422-0.44141 0.62891-0.12891 0.070312 0.40234-0.63672 0.60938-1.8359 1.0898-2.7109 1.0898-0.53516 0-1.0156-0.11328-1.5508-0.35938zm-1.7539-5.1484c-0.53906-0.21875-0.77344-0.25-1.0195-0.13672-0.39844 0.18359-0.41797 0-0.035156-0.34375 0.28125-0.25391 0.30859-0.25391 1.0781 0.007813 0.43359 0.14844 0.92188 0.37891 1.0859 0.51562l0.29688 0.24609-0.35156-0.003906c-0.19141-0.003906-0.66406-0.13281-1.0508-0.28516zm5.5 0.042968c0.16016-0.13672 0.64844-0.36719 1.0859-0.51562 0.76953-0.26172 0.79688-0.26172 1.0781-0.007813 0.38672 0.34766 0.36719 0.52734-0.035156 0.34375-0.25-0.11328-0.48828-0.082031-1.0625 0.14453-0.40625 0.16016-0.87891 0.28906-1.0508 0.28516l-0.3125-0.003906zm-0.22266-1.5117c0.58203-0.18359 1.1641-0.41406 1.293-0.51562 0.19922-0.15234 0.26562-0.8125 0.45703-4.4062 0.125-2.3242 0.28516-6.0938 0.35547-8.3789 0.070312-2.2852 0.17188-4.4492 0.22656-4.8086l0.09375-0.65234-1.1758 0.1875c-1.8047 0.28906-3.6016 0.375-4.8438 0.23047l-1.1289-0.13281-0.80859 0.85938c-0.44531 0.47266-0.80859 0.91016-0.80859 0.97656 0 0.0625 0.36328-0.19141 0.80859-0.57031 1.082-0.91406 1.3008-1.0742 1.3008-0.95312 0 0.058594-0.48438 0.60156-1.0742 1.2109l-1.0781 1.1055 0.097657 2.4336c0.13672 3.4023 0.48438 10.379 0.58594 11.734l0.085938 1.1328 0.85547 0.33984c1.9219 0.76172 2.8555 0.80078 4.7578 0.19922zm-5.5938-17.906c0.35547-0.28906 0.62891-0.53906 0.60938-0.5625-0.019531-0.019532-0.3125-0.070313-0.64453-0.11328-0.33594-0.042968-0.66406-0.10937-0.73047-0.15234-0.066406-0.039063-0.12109 0.097656-0.12109 0.30859 0 0.375 0.007813 0.37891 0.28125 0.12891 0.41406-0.37891 0.48047-0.17578 0.066406 0.21094-0.34375 0.32422-0.46875 0.70312-0.23047 0.70312 0.066406 0 0.41406-0.23438 0.76562-0.52344zm7.7734-1.4609c1.3164-0.15234 2.8047-0.36719 3.3086-0.48047 1.2734-0.28125 1.9258-0.34375 5.1523-0.48828 3.8359-0.17578 4.1562-0.34766 2.8945-1.5625-0.5-0.48047-0.92969-0.73828-1.5859-0.95312-1.6445-0.53125-4.7227-1.1406-7.6133-1.5-1.5742-0.19531-3.6445-0.51172-4.6055-0.69922-1.8438-0.36328-1.9766-0.35937-4.1719 0.10938-0.54297 0.11719-2.3164 0.375-3.9414 0.57812-3.2617 0.40234-7.0703 1.1875-8.1797 1.6875-0.83203 0.375-1.7461 1.2305-1.7461 1.6367 0 0.44531 0.5625 0.55859 3.5117 0.69922 3.2852 0.15625 4.1914 0.24219 5.2188 0.48828 0.42578 0.10156 1.9141 0.31641 3.3086 0.47656 1.3945 0.16016 2.7578 0.31641 3.0273 0.35156 0.75391 0.089844 2.7734-0.039062 5.4219-0.34766zm7.3945-1.3945c-0.40234-0.0625 0.14062-0.10156 1.4805-0.10547 1.2461-0.003906 1.9688 0.039063 1.7578 0.10547-0.42578 0.13672-2.3633 0.13672-3.2383 0zm-26.336-1.125c0.53516-0.47266 1.0664-0.65234 2.2539-0.76953 0.77344-0.078125 0.77344-0.074219-0.35547 0.25781-0.62109 0.18359-1.4141 0.46875-1.7617 0.63672l-0.62891 0.30469zm8.9258-3.25c1.3242-0.16016 3.1055-0.42969 3.9609-0.60547l1.5469-0.31641 0.070312-5.1328c0.039063-2.8242 0.015626-6.1484-0.046874-7.3867-0.066407-1.2383-0.078126-10.934-0.027344-21.547 0.089844-19.078 0.13672-22.992 0.28125-23.141 0.17578-0.17578 0.22656 0.17969 0.28516 1.9609 0.12891 4.0938 0.23047 40.609 0.12109 42.727-0.0625 1.2383-0.10156 4.5703-0.078125 7.4062l0.039062 5.1523 2.0742 0.38281c1.7344 0.32031 5.2695 0.79297 5.9102 0.79297 0.14062 0 0.17578-1.2539 0.17969-5.8789 0-6.0625 0.085937-8.9727 0.5625-19.473 0.15234-3.3711 0.40625-9.1992 0.5625-12.957s0.32031-7.5586 0.37109-8.4531l0.089843-1.6211-0.8125-1.1953c-1.0586-1.5586-3.0117-4.0742-6.332-8.1602-1.4766-1.8164-2.7539-3.3906-2.8359-3.5-0.11719-0.15625-0.71484 0.49609-2.8242 3.0938-3.1328 3.8555-5.1562 6.4492-6.418 8.2344l-0.90625 1.2852 0.039063 2.0234c0.054687 2.6992 0.40234 11.445 0.82031 20.613 0.51172 11.164 0.67969 17.07 0.61328 21.762-0.050781 3.6016-0.03125 4.2227 0.14062 4.2227 0.10938 0 1.2852-0.13281 2.6133-0.28906zm12.512-0.33594c-0.75781-0.18359-0.98438-0.30078-0.84766-0.43359 0.10938-0.10938 2.1094 0.32422 2.2773 0.49609 0.19531 0.19531-0.48828 0.16797-1.4297-0.0625zm0.875-0.56641c-0.26953-0.20312-0.26953-0.20703 0.015625-0.21094 0.16016-0.003906 0.41406 0.089844 0.5625 0.20312 0.26953 0.20312 0.26953 0.20703-0.015625 0.21094-0.16016 0.003906-0.41406-0.089844-0.5625-0.20312zm-9.6367-0.37109c0.82031-0.29297 1.6836-0.32031 0.98437-0.03125-0.19531 0.078124-0.67187 0.18359-1.0586 0.22656l-0.70312 0.082031 0.77344-0.27734zm0.42187-0.69141c0.19141-0.0625 0.51172-0.11719 0.70313-0.125 0.27734-0.011719 0.30859 0.015625 0.14062 0.125-0.11719 0.074219-0.43359 0.13281-0.70312 0.125-0.44922-0.011719-0.46484-0.019531-0.14063-0.125zm-7.6055-45.871c0-0.085938 0.23047-0.42969 0.50781-0.76563 0.62109-0.75 0.61719-0.74609 0.61719-0.66016 0 0.039063-0.25391 0.41016-0.5625 0.82422s-0.5625 0.6875-0.5625 0.60156zm-0.15625-0.83594c0.19141-0.33203 1.6953-1.9805 1.6992-1.8633 0.007813 0.14062-1.4062 1.8711-1.6406 2.0039-0.17188 0.097656-0.18359 0.070313-0.0625-0.14062zm12.633-7.6172c-0.22266-0.21484-0.35156-0.29297-0.28906-0.17578 0.0625 0.11719-0.046875 0.066407-0.23828-0.10938-0.23437-0.21094-0.35156-0.46875-0.35156-0.76562v-0.44531l0.61719 0.67969c0.97266 1.0742 1.1719 1.6875 0.26562 0.81641zm-0.36328-0.51172c0-0.027344-0.10938-0.14062-0.24609-0.24609-0.22266-0.17578-0.22656-0.17188-0.054687 0.054688 0.18359 0.23437 0.30078 0.30859 0.30078 0.19141z"/>
</svg>